<?xml version="1.0" encoding="utf-8"?>
<svg width="228px" height="65px" viewbox="0 0 228 65" version="1.1" xmlns:xlink="http://www.w3.org/1999/xlink" xmlns="http://www.w3.org/2000/svg">
  <g id="ColorIDEA-Copy">
    <g id="Color" fill="#03045E">
      <path d="M63.0469 13.7734L63.0469 49.3047L73.0313 49.3047L73.0313 13.7734L63.0469 13.7734ZM28.3125 48.3906Q24.1406 49.8906 18.6797 49.8906Q13.3125 49.8906 9.42188 47.8398Q5.53125 45.7891 3.48047 42.0039Q1.42969 38.2188 1.42969 33.2734Q1.42969 27.9531 3.72656 23.8047Q6.02344 19.6563 10.2188 17.3945Q14.4141 15.1328 19.875 15.1328Q24.2344 15.1328 28.3125 16.1875L28.3125 25.5391Q26.9063 24.6953 24.9609 24.2266Q23.0156 23.7578 21.0234 23.7578Q16.8984 23.7578 14.5195 26.125Q12.1406 28.4922 12.1406 32.5469Q12.1406 36.5781 14.5195 38.9102Q16.8984 41.2422 20.8828 41.2422Q24.5625 41.2422 28.3125 39.3672L28.3125 48.3906ZM59.3203 36.8828Q59.3203 42.9531 55.6523 46.4219Q51.9844 49.8906 45.3984 49.8906Q38.8594 49.8906 35.2148 46.5039Q31.5703 43.1172 31.5703 37.1641Q31.5703 33.3438 33.2813 30.5313Q34.9922 27.7188 38.1563 26.2188Q41.3203 24.7188 45.4453 24.7188Q49.7109 24.7188 52.8398 26.2891Q55.9688 27.8594 57.6445 30.6484Q59.3203 33.4375 59.3203 36.8828ZM104.531 36.8828Q104.531 42.9531 100.863 46.4219Q97.1953 49.8906 90.6094 49.8906Q84.0703 49.8906 80.4258 46.5039Q76.7813 43.1172 76.7813 37.1641Q76.7813 33.3438 78.4922 30.5313Q80.2031 27.7188 83.3672 26.2188Q86.5313 24.7188 90.6563 24.7188Q94.9219 24.7188 98.0508 26.2891Q101.18 27.8594 102.855 30.6484Q104.531 33.4375 104.531 36.8828ZM124.781 33.3906Q125.742 33.6016 126.305 33.8594L126.305 25.1641Q125.695 24.8828 124.875 24.8828Q122.625 24.8828 120.938 26.0664Q119.25 27.25 118.336 29.5234L118.242 29.5234L118.242 25.3047L108.258 25.3047L108.258 49.3047L118.242 49.3047L118.242 38.8984Q118.242 33.1797 123.188 33.1797Q123.82 33.1797 124.781 33.3906ZM49.1953 36.9297Q49.1953 32.0313 45.4453 32.0313Q41.6953 32.0313 41.6953 37.1641Q41.6953 42.5781 45.4922 42.5781Q49.1953 42.5781 49.1953 36.9297ZM94.4063 36.9297Q94.4063 32.0313 90.6563 32.0313Q86.9063 32.0313 86.9063 37.1641Q86.9063 42.5781 90.7031 42.5781Q94.4063 42.5781 94.4063 36.9297Z" />
    </g>
    <g id="IDEA" fill="#03045E">
      <path d="M131.203 49.3047L135.141 49.3047L135.141 15.6953L131.203 15.6953L131.203 49.3047ZM143.977 15.6953L143.977 49.3047L152.883 49.3047Q161.156 49.3047 166.09 44.582Q171.023 39.8594 171.023 32.0781Q171.023 15.6953 153.258 15.6953L143.977 15.6953ZM195.445 49.3047L177.633 49.3047L177.633 15.6953L194.695 15.6953L194.695 19.2578L181.57 19.2578L181.57 30.4375L193.711 30.4375L193.711 33.9766L181.57 33.9766L181.57 45.7422L195.445 45.7422L195.445 49.3047ZM223.57 49.3047L227.93 49.3047L214.992 15.6953L210.914 15.6953L198.023 49.3047L202.406 49.3047L205.758 39.8828L220.008 39.8828L223.57 49.3047ZM147.914 45.7422L147.914 19.2578L153.164 19.2578Q166.898 19.2578 166.898 32.1719Q166.898 38.6641 163.219 42.2031Q159.539 45.7422 152.93 45.7422L147.914 45.7422ZM213.445 22.0234L218.719 36.3438L207.07 36.3438L212.297 22.0234Q212.602 21.2031 212.836 19.7734L212.93 19.7734Q213.188 21.3203 213.445 22.0234Z" />
    </g>
  </g>
</svg>